<svg width="20" height="14" viewBox="0 0 20 14" fill="none" xmlns="http://www.w3.org/2000/svg">
<path d="M1.58334 13.5C1.27639 13.5 1.01892 13.396 0.81092 13.188C0.60292 12.98 0.499282 12.7229 0.500004 12.4167C0.500004 12.1097 0.604004 11.8523 0.812004 11.6443C1.02 11.4363 1.27711 11.3326 1.58334 11.3333H18.9167C19.2236 11.3333 19.4811 11.4373 19.6891 11.6453C19.8971 11.8533 20.0007 12.1104 20 12.4167C20 12.7236 19.896 12.9811 19.688 13.1891C19.48 13.3971 19.2229 13.5007 18.9167 13.5H1.58334ZM1.58334 8.08334C1.27639 8.08334 1.01892 7.97934 0.81092 7.77134C0.60292 7.56334 0.499282 7.30623 0.500004 7C0.500004 6.69306 0.604004 6.43559 0.812004 6.22759C1.02 6.01959 1.27711 5.91595 1.58334 5.91667H18.9167C19.2236 5.91667 19.4811 6.02067 19.6891 6.22867C19.8971 6.43667 20.0007 6.69378 20 7C20 7.30695 19.896 7.56442 19.688 7.77242C19.48 7.98042 19.2229 8.08406 18.9167 8.08334H1.58334ZM1.58334 2.66667C1.27639 2.66667 1.01892 2.56267 0.81092 2.35467C0.60292 2.14667 0.499282 1.88956 0.500004 1.58334C0.500004 1.27639 0.604004 1.01892 0.812004 0.810921C1.02 0.602921 1.27711 0.499282 1.58334 0.500004H18.9167C19.2236 0.500004 19.4811 0.604004 19.6891 0.812004C19.8971 1.02 20.0007 1.27711 20 1.58334C20 1.89028 19.896 2.14775 19.688 2.35575C19.48 2.56375 19.2229 2.66739 18.9167 2.66667H1.58334Z" fill="#132378"/>
</svg>
