<svg width="16" height="16" viewBox="0 0 16 16" fill="none" xmlns="http://www.w3.org/2000/svg">
<path d="M8.00011 9.51666L2.69178 14.825C2.49317 15.0236 2.24039 15.1229 1.93345 15.1229C1.6265 15.1229 1.37372 15.0236 1.17511 14.825C0.976502 14.6264 0.877197 14.3736 0.877197 14.0667C0.877197 13.7597 0.976502 13.5069 1.17511 13.3083L6.48345 7.99999L1.17511 2.69166C0.976502 2.49305 0.877197 2.24027 0.877197 1.93333C0.877197 1.62638 0.976502 1.3736 1.17511 1.17499C1.37372 0.97638 1.6265 0.877075 1.93345 0.877075C2.24039 0.877075 2.49317 0.97638 2.69178 1.17499L8.00011 6.48333L13.3084 1.17499C13.5071 0.97638 13.7598 0.877075 14.0668 0.877075C14.3737 0.877075 14.6265 0.97638 14.8251 1.17499C15.0237 1.3736 15.123 1.62638 15.123 1.93333C15.123 2.24027 15.0237 2.49305 14.8251 2.69166L9.51678 7.99999L14.8251 13.3083C15.0237 13.5069 15.123 13.7597 15.123 14.0667C15.123 14.3736 15.0237 14.6264 14.8251 14.825C14.6265 15.0236 14.3737 15.1229 14.0668 15.1229C13.7598 15.1229 13.5071 15.0236 13.3084 14.825L8.00011 9.51666Z" fill="white"/>
</svg>
