<svg width="48" height="48" viewBox="0 0 48 48" fill="none" xmlns="http://www.w3.org/2000/svg">
<path d="M6 2H38C38.5304 2 39.0391 2.21071 39.4142 2.58579C39.7893 2.96086 40 3.46957 40 4V12C40 12.5304 39.7893 13.0391 39.4142 13.4142C39.0391 13.7893 38.5304 14 38 14H6C5.46957 14 4.96086 13.7893 4.58579 13.4142C4.21071 13.0391 4 12.5304 4 12V4C4 3.46957 4.21071 2.96086 4.58579 2.58579C4.96086 2.21071 5.46957 2 6 2ZM6 18H38C38.5304 18 39.0391 18.2107 39.4142 18.5858C39.7893 18.9609 40 19.4696 40 20V21.34L35 19.12L22 24.88V30H6C5.46957 30 4.96086 29.7893 4.58579 29.4142C4.21071 29.0391 4 28.5304 4 28V20C4 19.4696 4.21071 18.9609 4.58579 18.5858C4.96086 18.2107 5.46957 18 6 18ZM6 34H22C22.12 38.5 24 42.8 26.92 46H6C5.46957 46 4.96086 45.7893 4.58579 45.4142C4.21071 45.0391 4 44.5304 4 44V36C4 35.4696 4.21071 34.9609 4.58579 34.5858C4.96086 34.2107 5.46957 34 6 34ZM16 10H18V6H16V10ZM16 26H18V22H16V26ZM16 42H18V38H16V42ZM8 6V10H12V6H8ZM8 22V26H12V22H8ZM8 38V42H12V38H8ZM35 24L44 28V34C44 39.56 40.16 44.74 35 46C29.84 44.74 26 39.56 26 34V28L35 24ZM35 27.88L30 30.12V35.44C30 38.52 32.14 41.4 35 42.12V27.88Z" fill="#5381FC"/>
</svg>
