<svg width="48" height="48" viewBox="0 0 48 48" fill="none" xmlns="http://www.w3.org/2000/svg">
<path d="M22.6 39.7C21.6 39.3333 20.858 38.6587 20.374 37.676C19.89 36.6933 19.832 35.668 20.2 34.6C20.3667 34.1333 20.992 32.808 22.076 30.624C23.16 28.44 24.36 26.0153 25.676 23.35C26.992 20.6833 28.2753 18.0913 29.526 15.574C30.7767 13.0567 31.668 11.2653 32.2 10.2C32.3667 9.93334 32.5667 9.75867 32.8 9.676C33.0333 9.59333 33.3 9.60134 33.6 9.7C33.8667 9.8 34.0667 9.96667 34.2 10.2C34.3333 10.4333 34.3667 10.7 34.3 11C34.0333 12.1667 33.5667 14.1253 32.9 16.876C32.2333 19.6267 31.542 22.4513 30.826 25.35L28.876 33.226C28.292 35.5767 27.9333 36.9347 27.8 37.3C27.4 38.3667 26.7 39.1333 25.7 39.6C24.7 40.0667 23.6667 40.1 22.6 39.7ZM45.75 20.2C45.1833 20.7667 44.5167 21.0587 43.75 21.076C42.9833 21.0933 42.3 20.868 41.7 20.4C40.9667 19.8333 40.2 19.2667 39.4 18.7C38.6 18.1333 37.7667 17.6333 36.9 17.2L38.3 11.15C39.6667 11.8167 40.9333 12.5167 42.1 13.25C43.2667 13.9833 44.4333 14.8333 45.6 15.8C46.3 16.3667 46.65 17.092 46.65 17.976C46.65 18.86 46.35 19.6013 45.75 20.2ZM2.2 20.2C1.56666 19.5667 1.27466 18.8167 1.324 17.95C1.37333 17.0833 1.732 16.3667 2.4 15.8C5.3 13.3667 8.6 11.458 12.3 10.074C16 8.69 19.9 7.99867 24 8C24.8 8 25.5833 8.03334 26.35 8.1C27.1167 8.16667 27.9 8.25 28.7 8.35L25.8 14.1C25.4 14.0333 25.0753 14 24.826 14H24C20.6667 14 17.5 14.55 14.5 15.65C11.5 16.75 8.75 18.3333 6.25 20.4C5.61666 20.9 4.92466 21.1333 4.174 21.1C3.42333 21.0667 2.76533 20.7667 2.2 20.2ZM37.25 28.75C36.7833 29.25 36.2333 29.5167 35.6 29.55C34.9667 29.5833 34.4167 29.5 33.95 29.3L35.45 23.25C35.75 23.4167 36.0167 23.5833 36.25 23.75C36.4833 23.9167 36.7333 24.0833 37 24.25C37.7333 24.75 38.1167 25.4587 38.15 26.376C38.1833 27.2933 37.8833 28.0847 37.25 28.75ZM10.75 28.75C10.0833 28.0833 9.79133 27.3 9.874 26.4C9.95666 25.5 10.332 24.7833 11 24.25C12.7 22.9833 14.5253 22 16.476 21.3C18.4267 20.6 20.5513 20.1833 22.85 20.05L19.6 26.65C18.7667 26.9167 17.9167 27.2587 17.05 27.676C16.1833 28.0933 15.4 28.5347 14.7 29C14 29.4667 13.3 29.6753 12.6 29.626C11.9 29.5767 11.2833 29.2847 10.75 28.75Z" fill="#5381FC"/>
</svg>
