<svg width="48" height="48" viewBox="0 0 48 48" fill="none" xmlns="http://www.w3.org/2000/svg">
<path d="M24 40.125C19.0922 40.125 13.5572 39.0366 9.19406 37.2188C7.59375 36.5447 6.22313 35.4544 5.10281 34.5938C5.04724 34.5512 4.98088 34.5251 4.91125 34.5184C4.84161 34.5116 4.77147 34.5245 4.70876 34.5555C4.64605 34.5865 4.59326 34.6344 4.55637 34.6939C4.51948 34.7533 4.49995 34.8219 4.5 34.8919V36.0713C4.5 38.7028 6.70219 41.0606 10.7006 42.7106C14.2772 44.1872 19.0003 45 24 45C28.9997 45 33.7219 44.1872 37.2994 42.7106C41.2978 41.0625 43.5 38.7028 43.5 36.0713V34.8919C43.5 34.8219 43.4805 34.7533 43.4436 34.6939C43.4067 34.6344 43.354 34.5865 43.2912 34.5555C43.2285 34.5245 43.1584 34.5116 43.0887 34.5184C43.0191 34.5251 42.9528 34.5512 42.8972 34.5938C41.7769 35.4534 40.4063 36.5447 38.805 37.2188C34.4419 39.0366 28.9078 40.125 24 40.125ZM43.5 11.8603C43.4241 9.26813 41.2331 6.94781 37.3125 5.31187C33.7256 3.82125 29.0006 3 24 3C18.9994 3 14.2744 3.82125 10.6959 5.31187C6.77906 6.94406 4.58813 9.25969 4.50844 11.8453L4.5 13.5C4.5 14.1009 4.9875 15.045 5.87156 15.8184C6.915 16.7306 8.46375 17.6306 10.3509 18.4181C14.3663 20.0963 19.4691 21.0938 24 21.0938C28.5309 21.0938 33.6338 20.0925 37.6491 18.4144C39.5363 17.6269 41.085 16.7269 42.1284 15.8147C43.0125 15.0459 43.5 14.1019 43.5 13.5V11.8603Z" fill="white"/>
<path d="M38.805 21.1875C34.4428 23.0091 28.9078 24.0937 24 24.0937C19.0922 24.0937 13.5572 23.0091 9.19405 21.1875C7.59374 20.5172 6.22312 19.4259 5.1028 18.5625C5.04698 18.5198 4.98027 18.4936 4.9103 18.487C4.84033 18.4804 4.7699 18.4936 4.70706 18.525C4.64421 18.5565 4.59147 18.605 4.55486 18.665C4.51825 18.725 4.49924 18.7941 4.49999 18.8644V21.75C4.49999 22.3509 4.98749 23.1075 5.87155 23.8809C6.91499 24.7941 8.46374 25.6931 10.3509 26.4816C14.3662 28.1569 19.4691 29.1562 24 29.1562C28.5309 29.1562 33.6337 28.155 37.6491 26.4778C39.5362 25.6894 41.085 24.7903 42.1284 23.8772C43.0125 23.1066 43.5 22.3509 43.5 21.75V18.8644C43.5 18.7944 43.4805 18.7258 43.4436 18.6664C43.4067 18.6069 43.3539 18.559 43.2912 18.528C43.2285 18.497 43.1584 18.4841 43.0887 18.4909C43.0191 18.4976 42.9528 18.5237 42.8972 18.5662C41.7769 19.4259 40.4062 20.5172 38.805 21.1875Z" fill="white"/>
<path d="M38.805 29.25C34.4419 31.0697 28.9078 32.1562 24 32.1562C19.0922 32.1562 13.5572 31.0697 9.19407 29.25C7.59376 28.5778 6.22313 27.4865 5.10282 26.625C5.04712 26.5824 4.98059 26.5563 4.91079 26.5496C4.84098 26.5429 4.7707 26.5559 4.70792 26.5871C4.64514 26.6184 4.59238 26.6666 4.55563 26.7263C4.51888 26.786 4.49961 26.8549 4.50001 26.925V29.7187C4.50001 30.3197 4.98751 31.0753 5.87063 31.8478C6.91407 32.7609 8.46376 33.66 10.3509 34.4484C14.3663 36.1237 19.4681 37.125 24 37.125C28.5319 37.125 33.6338 36.1237 37.6491 34.4465C39.5363 33.6581 41.085 32.759 42.1284 31.8459C43.0125 31.0725 43.5 30.3159 43.5 29.7187V26.925C43.5001 26.855 43.4805 26.7864 43.4436 26.727C43.4067 26.6675 43.354 26.6196 43.2912 26.5886C43.2285 26.5576 43.1584 26.5447 43.0888 26.5515C43.0191 26.5582 42.9528 26.5844 42.8972 26.6269C41.7769 27.4865 40.4063 28.5778 38.805 29.25Z" fill="white"/>
</svg>
