<svg width="48" height="48" viewBox="0 0 48 48" fill="none" xmlns="http://www.w3.org/2000/svg">
<path d="M6 6.10001C4.762 7.36401 4 9.09201 4 11V33C4 34.8565 4.7375 36.637 6.05025 37.9498C7.36301 39.2625 9.14348 40 11 40H25.028C25.13 39.496 25.316 39 25.588 38.528L27.048 36H11C10.2044 36 9.44129 35.6839 8.87868 35.1213C8.31607 34.5587 8 33.7957 8 33V14H36V16.508C37.2794 16.0454 38.6468 15.8779 40 16.018V11C40 9.09201 39.238 7.36401 38 6.10001V6.00001H37.9C36.5927 4.71578 34.8326 3.99738 33 4.00001H11C9.092 4.00001 7.364 4.76201 6.1 6.00001H6V6.10001ZM38.424 18C39.065 17.9408 39.7111 17.9704 40.344 18.088L37.042 23.804C36.8773 24.0697 36.7676 24.3658 36.7195 24.6747C36.6714 24.9836 36.6858 25.299 36.7619 25.6022C36.8381 25.9054 36.9743 26.1902 37.1626 26.4397C37.3509 26.6893 37.5874 26.8984 37.8581 27.0548C38.1288 27.2112 38.4282 27.3116 38.7384 27.3501C39.0486 27.3886 39.3634 27.3643 39.6641 27.2788C39.9648 27.1933 40.2453 27.0483 40.4888 26.8523C40.7324 26.6563 40.9341 26.4134 41.082 26.138L44.384 20.42C45.2885 21.4779 45.8572 22.7815 46.0175 24.1641C46.1777 25.5467 45.9222 26.9458 45.2837 28.1826C44.6451 29.4193 43.6524 30.4377 42.4324 31.1077C41.2123 31.7777 39.8203 32.0688 38.434 31.944L32.372 42.444C31.9853 43.1142 31.3482 43.6034 30.6009 43.8038C29.8536 44.0043 29.0572 43.8997 28.387 43.513C27.7168 43.1263 27.2277 42.4892 27.0272 41.7419C26.8267 40.9946 26.9313 40.1982 27.318 39.528L33.37 29.048C32.6519 28.0457 32.2112 26.8716 32.0927 25.6443C31.9741 24.4171 32.1817 23.1803 32.6946 22.0591C33.2075 20.9378 34.0075 19.972 35.0136 19.2592C36.0196 18.5465 37.1961 18.1121 38.424 18ZM20.604 18.486C20.7373 18.6311 20.8408 18.801 20.9084 18.9861C20.9761 19.1712 21.0066 19.3678 20.9982 19.5647C20.9899 19.7615 20.9428 19.9548 20.8597 20.1335C20.7766 20.3122 20.6592 20.4727 20.514 20.606L15.72 25L20.514 29.394C20.8073 29.6629 20.9818 30.0374 20.9991 30.435C21.0163 30.8325 20.8749 31.2207 20.606 31.514C20.3371 31.8073 19.9626 31.9818 19.5651 31.9991C19.1675 32.0163 18.7793 31.8749 18.486 31.606L12.486 26.106C12.3326 25.9655 12.2101 25.7946 12.1264 25.6042C12.0426 25.4138 11.9993 25.208 11.9993 25C11.9993 24.792 12.0426 24.5862 12.1264 24.3958C12.2101 24.2054 12.3326 24.0345 12.486 23.894L18.486 18.394C18.6312 18.2608 18.8013 18.1575 18.9864 18.09C19.1716 18.0225 19.3682 17.9922 19.5651 18.0007C19.7619 18.0093 19.9552 18.0565 20.1338 18.1398C20.3124 18.2231 20.4729 18.3407 20.606 18.486H20.604ZM26.514 31.606L30.554 27.902C29.9035 26.0174 29.8978 23.9701 30.538 22.082L26.514 18.394C26.3688 18.2608 26.1987 18.1576 26.0136 18.0902C25.8284 18.0227 25.6318 17.9924 25.4349 18.0009C25.2381 18.0095 25.0448 18.0567 24.8662 18.1399C24.6876 18.2232 24.5272 18.3408 24.394 18.486C24.2608 18.6312 24.1576 18.8013 24.0901 18.9864C24.0227 19.1716 23.9924 19.3682 24.0009 19.5651C24.0095 19.7619 24.0567 19.9552 24.1399 20.1338C24.2232 20.3124 24.3408 20.4728 24.486 20.606L29.28 25L24.486 29.394C24.1927 29.6629 24.0182 30.0374 24.0009 30.435C23.9837 30.8325 24.1251 31.2207 24.394 31.514C24.6629 31.8073 25.0374 31.9818 25.4349 31.9991C25.8325 32.0163 26.2207 31.8749 26.514 31.606Z" fill="white"/>
</svg>
