<svg width="48" height="48" viewBox="0 0 48 48" fill="none" xmlns="http://www.w3.org/2000/svg">
<path d="M24 4.80005C30.7608 4.80005 34.596 9.41525 35.1528 14.9904H35.3208C39.6768 14.9904 43.2 18.6192 43.2 23.0952C43.2 23.3232 43.1904 23.5512 43.1736 23.7744C41.4507 21.6224 39.1227 20.0356 36.4897 19.2187C33.8567 18.4019 31.0394 18.3923 28.401 19.1913C25.7625 19.9903 23.4238 21.5613 21.6863 23.7016C19.9489 25.842 18.8923 28.4537 18.6528 31.2H12.6768C8.3256 31.2 4.8 27.5713 4.8 23.0952C4.8 18.6192 8.328 14.9904 12.6768 14.9904H12.8472C13.4088 9.37925 17.2392 4.80005 24 4.80005ZM32.4 21.6C35.2643 21.6 38.0114 22.7379 40.0368 24.7633C42.0621 26.7887 43.2 29.5357 43.2 32.4C43.2 35.2644 42.0621 38.0114 40.0368 40.0368C38.0114 42.0622 35.2643 43.2001 32.4 43.2001C29.5357 43.2001 26.7886 42.0622 24.7633 40.0368C22.7379 38.0114 21.6 35.2644 21.6 32.4C21.6 29.5357 22.7379 26.7887 24.7633 24.7633C26.7886 22.7379 29.5357 21.6 32.4 21.6ZM36.2448 33.3552C36.4981 33.6086 36.8417 33.7509 37.2 33.7509C37.5583 33.7509 37.9019 33.6086 38.1552 33.3552C38.4085 33.1019 38.5509 32.7583 38.5509 32.4C38.5509 32.0418 38.4085 31.6982 38.1552 31.4449L33.3552 26.6449C33.2299 26.5192 33.081 26.4194 32.9171 26.3514C32.7532 26.2834 32.5775 26.2483 32.4 26.2483C32.2225 26.2483 32.0468 26.2834 31.8829 26.3514C31.719 26.4194 31.5701 26.5192 31.4448 26.6449L26.6448 31.4449C26.5194 31.5703 26.4199 31.7192 26.352 31.8831C26.2841 32.047 26.2491 32.2227 26.2491 32.4C26.2491 32.5774 26.2841 32.7531 26.352 32.917C26.4199 33.0809 26.5194 33.2298 26.6448 33.3552C26.7702 33.4807 26.9192 33.5802 27.0831 33.6481C27.2469 33.716 27.4226 33.7509 27.6 33.7509C27.7774 33.7509 27.9531 33.716 28.117 33.6481C28.2808 33.5802 28.4298 33.4807 28.5552 33.3552L31.2 30.7104V37.2001C31.2 37.5183 31.3264 37.8235 31.5515 38.0486C31.7765 38.2736 32.0817 38.4001 32.4 38.4001C32.7183 38.4001 33.0235 38.2736 33.2485 38.0486C33.4736 37.8235 33.6 37.5183 33.6 37.2001V30.7104L36.2448 33.3552Z" fill="white"/>
</svg>
