<svg width="17" height="10" viewBox="0 0 17 10" fill="none" xmlns="http://www.w3.org/2000/svg">
<path d="M0.916707 8.10417L7.91671 1.08334C8.00004 1 8.09032 0.940836 8.18754 0.905836C8.28476 0.870836 8.38893 0.853614 8.50004 0.854169C8.61115 0.854169 8.71532 0.871391 8.81254 0.905836C8.90976 0.94028 9.00004 0.999447 9.08337 1.08334L16.1042 8.10417C16.2987 8.29861 16.3959 8.54167 16.3959 8.83334C16.3959 9.125 16.2917 9.375 16.0834 9.58333C15.875 9.79167 15.632 9.89583 15.3542 9.89583C15.0764 9.89583 14.8334 9.79167 14.625 9.58333L8.50004 3.45834L2.37504 9.58333C2.1806 9.77778 1.94087 9.875 1.65587 9.875C1.37087 9.875 1.12448 9.77083 0.916707 9.5625C0.708373 9.35417 0.604207 9.11111 0.604207 8.83333C0.604207 8.55556 0.708373 8.3125 0.916707 8.10417Z" fill="#132378"/>
</svg>
