<svg width="70" height="70" viewBox="0 0 70 70" fill="none" xmlns="http://www.w3.org/2000/svg">
<path d="M35 24.6429V18.4286M35 24.6429C31.5614 24.6429 28.7857 24.6429 28.7857 28.7857C28.7857 35 41.2143 35 41.2143 41.2143C41.2143 45.3572 38.4386 45.3572 35 45.3572M35 24.6429C38.4386 24.6429 41.2143 26.2172 41.2143 28.7857M28.7857 41.2143C28.7857 44.3214 31.5614 45.3572 35 45.3572M35 45.3572V51.5714" stroke="#5381FC" stroke-width="5" stroke-linecap="round" stroke-linejoin="round"/>
<path d="M35 61.9286C49.8722 61.9286 61.9286 49.8722 61.9286 35C61.9286 20.1277 49.8722 8.07141 35 8.07141C20.1278 8.07141 8.07143 20.1277 8.07143 35C8.07143 49.8722 20.1278 61.9286 35 61.9286Z" stroke="#5381FC" stroke-width="5" stroke-linecap="round" stroke-linejoin="round"/>
</svg>
