<svg width="70" height="70" viewBox="0 0 70 70" fill="none" xmlns="http://www.w3.org/2000/svg">
<path d="M29.1667 8.74997C28.3403 8.74997 27.6471 8.46997 27.0871 7.90997C26.5271 7.34997 26.2481 6.65775 26.25 5.8333C26.25 5.00691 26.53 4.31372 27.09 3.75372C27.65 3.19372 28.3422 2.91469 29.1667 2.91664H40.8333C41.6597 2.91664 42.3529 3.19664 42.9129 3.75664C43.4729 4.31664 43.7519 5.00886 43.75 5.8333C43.75 6.65969 43.47 7.35289 42.91 7.91289C42.35 8.47289 41.6578 8.75191 40.8333 8.74997H29.1667ZM35 40.8333C35.8264 40.8333 36.5196 40.5533 37.0796 39.9933C37.6396 39.4333 37.9186 38.7411 37.9167 37.9166V26.25C37.9167 25.4236 37.6367 24.7304 37.0767 24.1704C36.5167 23.6104 35.8244 23.3314 35 23.3333C34.1736 23.3333 33.4804 23.6133 32.9204 24.1733C32.3604 24.7333 32.0814 25.4255 32.0833 26.25V37.9166C32.0833 38.743 32.3633 39.4362 32.9233 39.9962C33.4833 40.5562 34.1756 40.8352 35 40.8333ZM35 64.1666C31.4028 64.1666 28.0117 63.4734 24.8267 62.0871C21.6417 60.7007 18.8592 58.8175 16.4792 56.4375C14.0972 54.0555 12.2131 51.272 10.8267 48.0871C9.44028 44.9021 8.74806 41.5119 8.75 37.9166C8.75 34.3194 9.4432 30.9283 10.8296 27.7433C12.216 24.5583 14.0992 21.7758 16.4792 19.3958C18.8611 17.0139 21.6446 15.1297 24.8296 13.7433C28.0146 12.3569 31.4047 11.6647 35 11.6666C38.0139 11.6666 40.9063 12.1527 43.6771 13.125C46.4479 14.0972 49.0486 15.5069 51.4792 17.3541L53.5208 15.3125C54.0556 14.7777 54.7361 14.5104 55.5625 14.5104C56.3889 14.5104 57.0695 14.7777 57.6042 15.3125C58.1389 15.8472 58.4063 16.5277 58.4063 17.3541C58.4063 18.1805 58.1389 18.8611 57.6042 19.3958L55.5625 21.4375C57.4097 23.868 58.8195 26.4687 59.7917 29.2396C60.7639 32.0104 61.25 34.9027 61.25 37.9166C61.25 41.5139 60.5568 44.905 59.1704 48.09C57.784 51.275 55.9008 54.0575 53.5208 56.4375C51.1389 58.8194 48.3554 60.7036 45.1704 62.09C41.9854 63.4764 38.5953 64.1686 35 64.1666ZM35 58.3333C40.6389 58.3333 45.4514 56.3402 49.4375 52.3541C53.4236 48.368 55.4167 43.5555 55.4167 37.9166C55.4167 32.2777 53.4236 27.4652 49.4375 23.4791C45.4514 19.493 40.6389 17.5 35 17.5C29.3611 17.5 24.5486 19.493 20.5625 23.4791C16.5764 27.4652 14.5833 32.2777 14.5833 37.9166C14.5833 43.5555 16.5764 48.368 20.5625 52.3541C24.5486 56.3402 29.3611 58.3333 35 58.3333Z" fill="#5381FC"/>
</svg>
