<svg width="56" height="56" viewBox="0 0 56 56" fill="none" xmlns="http://www.w3.org/2000/svg">
<path d="M45.2812 38.7188C43.9688 37.4062 42.474 37.0052 40.7969 37.5156L37.2969 34.0156C40.4323 30.151 42 25.8125 42 21C42 15.1667 39.9583 10.2083 35.875 6.125C31.7917 2.04167 26.8333 0 21 0C15.1667 0 10.2083 2.04167 6.125 6.125C2.04167 10.2083 0 15.1667 0 21C0 26.8333 2.04167 31.7917 6.125 35.875C10.2083 39.9583 15.1667 42 21 42C26.1042 42 30.4427 40.4323 34.0156 37.2969L37.5156 40.7969C37.0781 42.5469 37.4792 44.0417 38.7188 45.2812L48.0156 54.5781C48.9635 55.526 50.0573 56 51.2969 56C52.6094 56 53.7031 55.526 54.5781 54.5781C55.526 53.6302 56 52.5365 56 51.2969C56 50.0573 55.526 48.9635 54.5781 48.0156L45.2812 38.7188ZM21 37.2969C16.4792 37.2969 12.6328 35.7109 9.46094 32.5391C6.28906 29.3672 4.70312 25.5208 4.70312 21C4.70312 16.4792 6.28906 12.6328 9.46094 9.46094C12.6328 6.28906 16.4792 4.70312 21 4.70312C25.5208 4.70312 29.3672 6.28906 32.5391 9.46094C35.7109 12.6328 37.2969 16.4792 37.2969 21C37.2969 25.5208 35.7109 29.3672 32.5391 32.5391C29.3672 35.7109 25.5208 37.2969 21 37.2969Z" fill="#5381FC"/>
</svg>
