<svg width="58" height="58" viewBox="0 0 58 58" fill="none" xmlns="http://www.w3.org/2000/svg">
<path d="M45.9167 7.25004L31.4167 21.75L36.25 26.5834L53.1667 9.66671V7.25004M29 30.2084C28.6795 30.2084 28.3722 30.0811 28.1456 29.8545C27.919 29.6279 27.7917 29.3205 27.7917 29C27.7917 28.6796 27.919 28.3722 28.1456 28.1456C28.3722 27.919 28.6795 27.7917 29 27.7917C29.3205 27.7917 29.6278 27.919 29.8544 28.1456C30.081 28.3722 30.2083 28.6796 30.2083 29C30.2083 29.3205 30.081 29.6279 29.8544 29.8545C29.6278 30.0811 29.3205 30.2084 29 30.2084ZM14.5 48.3334C13.2181 48.3334 11.9887 47.8241 11.0823 46.9177C10.1759 46.0113 9.66666 44.7819 9.66666 43.5C9.66666 42.2182 10.1759 40.9888 11.0823 40.0824C11.9887 39.1759 13.2181 38.6667 14.5 38.6667C15.7819 38.6667 17.0113 39.1759 17.9177 40.0824C18.8241 40.9888 19.3333 42.2182 19.3333 43.5C19.3333 44.7819 18.8241 46.0113 17.9177 46.9177C17.0113 47.8241 15.7819 48.3334 14.5 48.3334ZM14.5 19.3334C13.2181 19.3334 11.9887 18.8241 11.0823 17.9177C10.1759 17.0113 9.66666 15.7819 9.66666 14.5C9.66666 13.2182 10.1759 11.9888 11.0823 11.0824C11.9887 10.1759 13.2181 9.66671 14.5 9.66671C15.7819 9.66671 17.0113 10.1759 17.9177 11.0824C18.8241 11.9888 19.3333 13.2182 19.3333 14.5C19.3333 15.7819 18.8241 17.0113 17.9177 17.9177C17.0113 18.8241 15.7819 19.3334 14.5 19.3334ZM23.2967 18.4634C23.8525 17.255 24.1667 15.9259 24.1667 14.5C24.1667 11.9363 23.1482 9.47753 21.3354 7.66467C19.5225 5.85182 17.0638 4.83337 14.5 4.83337C11.9362 4.83337 9.47748 5.85182 7.66463 7.66467C5.85178 9.47753 4.83333 11.9363 4.83333 14.5C4.83333 17.0638 5.85178 19.5226 7.66463 21.3354C9.47748 23.1483 11.9362 24.1667 14.5 24.1667C15.9258 24.1667 17.255 23.8525 18.4633 23.2967L24.1667 29L18.4633 34.7034C17.255 34.1475 15.9258 33.8334 14.5 33.8334C11.9362 33.8334 9.47748 34.8518 7.66463 36.6647C5.85178 38.4775 4.83333 40.9363 4.83333 43.5C4.83333 46.0638 5.85178 48.5225 7.66463 50.3354C9.47748 52.1483 11.9362 53.1667 14.5 53.1667C17.0638 53.1667 19.5225 52.1483 21.3354 50.3354C23.1482 48.5225 24.1667 46.0638 24.1667 43.5C24.1667 42.0742 23.8525 40.745 23.2967 39.5367L29 33.8334L45.9167 50.75H53.1667V48.3334L23.2967 18.4634Z" fill="#5381FC"/>
</svg>
