<svg width="25" height="24" viewBox="0 0 25 24" fill="none" xmlns="http://www.w3.org/2000/svg">
<path d="M22.5 7.535V17C22.5 17.7652 22.2077 18.5015 21.6827 19.0583C21.1578 19.615 20.4399 19.9501 19.676 19.995L19.5 20H5.5C4.73479 20 3.99849 19.7077 3.44174 19.1827C2.88499 18.6578 2.54989 17.9399 2.505 17.176L2.5 17V7.535L11.945 13.832L12.061 13.898C12.1977 13.9648 12.3478 13.9995 12.5 13.9995C12.6522 13.9995 12.8023 13.9648 12.939 13.898L13.055 13.832L22.5 7.535Z" fill="white"/>
<path d="M19.5 4C20.58 4 21.527 4.57 22.055 5.427L12.5 11.797L2.94501 5.427C3.19574 5.01977 3.54022 4.6784 3.94971 4.43138C4.35921 4.18436 4.82184 4.03886 5.29901 4.007L5.50001 4H19.5Z" fill="white"/>
</svg>
