<svg width="20" height="20" viewBox="0 0 20 20" fill="none" xmlns="http://www.w3.org/2000/svg">
<path d="M5 18.3333C4.54166 18.3333 4.14916 18.1699 3.8225 17.8433C3.49583 17.5166 3.33277 17.1244 3.33333 16.6666V8.33325C3.33333 7.87492 3.49666 7.48242 3.82333 7.15575C4.15 6.82909 4.54222 6.66603 5 6.66659H5.83333V4.99992C5.83333 3.84714 6.23972 2.86436 7.0525 2.05159C7.86527 1.23881 8.84777 0.832697 10 0.833253C11.1528 0.833253 12.1356 1.23964 12.9483 2.05242C13.7611 2.8652 14.1672 3.8477 14.1667 4.99992V6.66659H15C15.4583 6.66659 15.8508 6.82992 16.1775 7.15659C16.5042 7.48325 16.6672 7.87548 16.6667 8.33325V16.6666C16.6667 17.1249 16.5033 17.5174 16.1767 17.8441C15.85 18.1708 15.4578 18.3338 15 18.3333H5ZM10 14.1666C10.4583 14.1666 10.8508 14.0033 11.1775 13.6766C11.5042 13.3499 11.6672 12.9577 11.6667 12.4999C11.6667 12.0416 11.5033 11.6491 11.1767 11.3224C10.85 10.9958 10.4578 10.8327 10 10.8333C9.54166 10.8333 9.14916 10.9966 8.8225 11.3233C8.49583 11.6499 8.33277 12.0421 8.33333 12.4999C8.33333 12.9583 8.49666 13.3508 8.82333 13.6774C9.15 14.0041 9.54222 14.1671 10 14.1666ZM7.5 6.66659H12.5V4.99992C12.5 4.30547 12.2569 3.7152 11.7708 3.22909C11.2847 2.74297 10.6944 2.49992 10 2.49992C9.30555 2.49992 8.71527 2.74297 8.22916 3.22909C7.74305 3.7152 7.5 4.30547 7.5 4.99992V6.66659Z" fill="#626C9F"/>
</svg>
