<svg width="24" height="24" viewBox="0 0 24 24" fill="none" xmlns="http://www.w3.org/2000/svg">
<rect width="24" height="24" fill="white"/>
<path d="M23.0306 7.28056L20.2275 10.0837C19.6613 16.6481 14.1253 21.7499 7.5 21.7499C6.13875 21.7499 5.01656 21.5343 4.16438 21.1087C3.47719 20.7646 3.19594 20.3962 3.12563 20.2912C3.06293 20.1972 3.02229 20.0902 3.00675 19.9782C2.99121 19.8663 3.00116 19.7523 3.03587 19.6448C3.07058 19.5372 3.12914 19.4389 3.20718 19.3572C3.28523 19.2754 3.38073 19.2124 3.48656 19.1727C3.51094 19.1634 5.75906 18.2999 7.18688 16.6565C6.39505 16.0055 5.70382 15.241 5.13563 14.3877C3.97313 12.6618 2.67188 9.66369 3.07313 5.18337C3.08584 5.04101 3.13898 4.90525 3.22627 4.79207C3.31356 4.67889 3.43137 4.59301 3.56584 4.54454C3.7003 4.49608 3.84581 4.48704 3.98524 4.51851C4.12466 4.54997 4.25219 4.62061 4.35281 4.72212C4.38563 4.75494 7.47281 7.82525 11.2472 8.82087V8.24994C11.2458 7.65124 11.3641 7.05831 11.5953 6.50606C11.8265 5.95381 12.1659 5.45341 12.5934 5.03431C13.0087 4.61968 13.5027 4.29241 14.0465 4.07182C14.5902 3.85123 15.1726 3.74178 15.7594 3.74994C16.5465 3.7577 17.3181 3.96899 17.9994 4.36325C18.6807 4.75752 19.2483 5.32135 19.6472 5.99994H22.5C22.6484 5.99982 22.7935 6.04374 22.917 6.12615C23.0404 6.20855 23.1367 6.32573 23.1935 6.46284C23.2503 6.59996 23.2651 6.75085 23.2361 6.89642C23.2072 7.04198 23.1356 7.17567 23.0306 7.28056Z" fill="#5381FC"/>
</svg>
