<svg width="20" height="21" viewBox="0 0 20 21" fill="none" xmlns="http://www.w3.org/2000/svg">
<path d="M17.5833 7.89586L10.5833 14.9167C10.5 15 10.4097 15.0592 10.3125 15.0942C10.2152 15.1292 10.1111 15.1464 9.99996 15.1459C9.88885 15.1459 9.78468 15.1286 9.68746 15.0942C9.59024 15.0598 9.49996 15.0006 9.41663 14.9167L2.39579 7.89586C2.20135 7.70142 2.10413 7.45836 2.10413 7.1667C2.10413 6.87503 2.20829 6.62503 2.41663 6.4167C2.62496 6.20836 2.86801 6.1042 3.14579 6.1042C3.42357 6.1042 3.66663 6.20836 3.87496 6.4167L9.99996 12.5417L16.125 6.4167C16.3194 6.22225 16.5591 6.12503 16.8441 6.12503C17.1291 6.12503 17.3755 6.2292 17.5833 6.43753C17.7916 6.64586 17.8958 6.88892 17.8958 7.1667C17.8958 7.44447 17.7916 7.68753 17.5833 7.89586Z" fill="#132378"/>
</svg>
